<svg xmlns="http://www.w3.org/2000/svg" data-name="Layer 1" viewBox="0 0 334.41 76">
  <path fill="#231f20" d="M29.32 73.12C14.21 73.12 1.94 56.95 1.94 37S14.21.88 29.32.88 56.7 17.05 56.7 37 44.45 73.12 29.32 73.12m0-73.12C13.13 0 0 16.56 0 37s13.13 37 29.32 37 29.32-16.56 29.32-37S45.52 0 29.32 0m-2.55 27.26c.14-.5 1.11-.38 2.46-.3 1.83.11 2 .72 2.18 1.65a16.54 16.54 0 0 1 0 2.88 1.57 1.57 0 0 0 .67.1s.24-2.06.78-5.1.65-3.34.8-4a1.75 1.75 0 0 0-.65-.08 9.28 9.28 0 0 1-.91 2.67c-.69 1.18-2.26 1.1-2.86 1.08-.81 0-2.15 0-2.1-.5l.76-3.83c1.45-7.31 1.81-9 1.89-9.39h6.26c4.06.14 4.33 1.26 3.92 5.35a6.17 6.17 0 0 0 .91 0s1.18-5.91 1.33-6.29c0 0-.15-.18-.17-.18-2.69.25-10.13.1-13.63.14a33.37 33.37 0 0 0-8.78.82c-4.23.92-8.92 3.38-10.91 8.41-1.8 4.68.15 9 3.75 10a6.58 6.58 0 0 0 8.31-4.06c.81-2.1.26-3.42-.27-4.08s-1.8-.68-2.08 0a1.26 1.26 0 0 1 .8.82 4.56 4.56 0 0 1 0 2.86c-.68 2.42-3.08 4.88-6.51 3.78-2.69-.86-3.31-5.32-1.86-9.33a12.76 12.76 0 0 1 9.12-7.49 31.7 31.7 0 0 1 6.9-.75c-.15.85-1.45 8.14-2.41 13.33-1 5.52-2.35 12.06-3.08 14.11-.87 2.45-1.86 6.12-4.86 7.94-2.79 1.69-6.6 1-7.82-1.44a4.06 4.06 0 0 1 .23-4.59 1.7 1.7 0 0 1 1.18-.72c-.59-.63-1.94-.8-3.11.4a4.74 4.74 0 0 0 0 5.94 6.72 6.72 0 0 0 5 2.37 9.5 9.5 0 0 0 5.79-1.54 14.55 14.55 0 0 0 5.78-7.56c1.06-2.65 2.08-7.27 3.31-13.41m18.39 12.66c-2.3-2.47-4-4.28-6-6.5-2.76-3.07-2.61-8 1.05-9.63a4.2 4.2 0 0 1 5.62 2c.79 1.89.56 4.06.55 5.44a3.19 3.19 0 0 0 .83.06s.55-4.8 1.32-8.8a2.77 2.77 0 0 0-.73 0c0 .07-.28 1.22-.74 1.37s-.67.08-1.51-.39a6.43 6.43 0 0 0-5.65-.42 7.65 7.65 0 0 0-2.64 12.44c2.47 2.82 3.83 4 6 6.46 4 4.52 5.29 11.58 1.52 16.82a11.63 11.63 0 0 1-11.5 4.72c-5.24-.79-7.85-3.83-8.91-7.26-1.84-5.95 1.31-11.29 5.92-12.39 2.78-.66 5.69.56 6.45 2.79a4 4 0 0 1-1.51 4.52 2.1 2.1 0 0 1-1.53.43s-.24 1.14 1.6 1.31a3.2 3.2 0 0 0 3-1.59 4.81 4.81 0 0 0 .32-4.93c-1.16-2.51-4.9-4.73-9.55-3.29a10.89 10.89 0 0 0-7.23 13.51c1.72 6.5 7.78 8.73 13.23 8.48 3.77-.18 7.32-1.5 10.88-5.43 6.58-7.82 2.65-16-.78-19.72m116.92-9.53h-.51c-.88-6.19-3.44-6.33-7.17-6.33h-6.26V36.5h3.29c3 0 4.42.08 4.42-4h.51v9.44h-.51c0-4.87-1.77-4.43-4.42-4.43h-3.29v7.76c0 5.66 0 6.64 3.76 6.64h.54v.51h-11.14v-.51h.45c3.72 0 3.72-1 3.72-6.64V28.31c0-4.56-.05-4.69-4-4.69v-.52h20.61zm5.26 3.58c4.81 0 8.72 3.94 8.72 9.56 0 6.28-4.36 9.56-8.72 9.56-4.12 0-8.68-3.05-8.68-9.6.03-5.48 3.86-9.51 8.71-9.51zm0 18.05c4.85 0 5.91-4.65 5.91-8.36 0-4.78-1.55-8.63-5.91-8.63s-5.88 3.76-5.88 8.58c.04 3.6 1.02 8.42 5.91 8.42zm15.19-5.25c0 5-.22 5.09 2.92 5.09v.51h-8.37v-.51h.36c2.61 0 2.65-.49 2.65-5.09V28.35c0-3.27.17-4.25-2.75-4.25v-.51a14.63 14.63 0 0 0 4.87-.93h.31zm96.3 1.26c-.88 3.14-3.22 5-6.93 5-4.8 0-8.48-3.81-8.48-9.38s3.84-9.74 8.85-9.74c3.51 0 5.8 1.64 5.8 3.45a1.36 1.36 0 0 1-1.29 1.5c-1 0-1.36-.75-1.61-1.9s-.9-2-2.86-2c-3.63 0-6.09 2.7-6.09 7.92 0 3.45 1.37 9 6.55 9a5 5 0 0 0 5.14-3.89zm-46.09-12.25c-3.15-1.55-6.39-2.82-6.39-7.69a4.36 4.36 0 0 1 4.63-4.5c3.09 0 6.13 1.85 7.37 7.16h.5V23.1h-.5a4.58 4.58 0 0 1-.65 1.95c-.09.15-.19.26-.29.29s-.37 0-.62-.22a7.74 7.74 0 0 0-5.94-2.55 6.86 6.86 0 0 0-7.25 7c0 4.72 4 6.84 8.18 8.84 4.8 2.27 6.65 3.49 6.65 7.7a5.68 5.68 0 0 1-6 5.71c-6.42 0-8-7.17-8.35-9.2h-.48v9.43h.48a8.5 8.5 0 0 1 .61-2.15c.11-.19.19-.26.29-.29a.57.57 0 0 1 .61.21l.14.15a10 10 0 0 0 7.07 2.92c6.09 0 8.62-4 8.62-8.24.03-4.59-3.93-6.53-8.68-8.86zM113.21 46.8v-6.7c0-4-1.5-6.11-5.48-6.11-2.83 0-5 2.15-6.2 3.67v-15h-.31a29.65 29.65 0 0 1-5 .44H73.41v7h.52c1-4.16 1.38-6.06 5-6.06h6.28v21.21c0 5.66 0 6.64-3.72 6.64h-1.08v.51h12v-.51h-.81c-3.72 0-3.72-1-3.72-6.64V24.08h5.84c4.59 0 5.42.57 5.42 3.6V46.8c0 4.91.22 5.09-2.88 5.09v.51h7.88v-.51c-2.79 0-2.57-.35-2.57-5.09v-7.59c1.42-1.81 3.11-3.84 5.5-3.84 2.7 0 3.75 1.14 3.75 5.25v6.18c0 4.87.22 5.09-2.84 5.09v.51h8.06v-.51c-3.01-.01-2.83-.23-2.83-5.09zm6.62-6.08c0 .62-.08 1.33-.08 2.08 0 2.57.67 9.16 6.07 9.16a5.5 5.5 0 0 0 5.39-3.55h1a6.89 6.89 0 0 1-6.83 4.69c-3.69 0-8.33-3-8.33-9.43 0-5.49 3.43-9.69 8.17-9.69a6.88 6.88 0 0 1 7 6.73zm9.37-.89a4.5 4.5 0 0 0 .09-.89 3.73 3.73 0 0 0-3.94-4c-4 0-5.26 3.72-5.44 4.87zm62.87 7c0 3.85-.31 5.09 2.43 5.09h.45v.51h-8.46v-.51h.54c2 0 2.61-.27 2.61-3.36V40.5c0-4.87 0-4.87-3.15-4.87v-.51a25.54 25.54 0 0 0 5.13-1.15h.44zm-1.56-21.78a1.89 1.89 0 0 1 0 3.77 1.78 1.78 0 0 1-1.77-1.88 1.76 1.76 0 0 1 1.81-1.93zm14 9c4.81 0 8.72 3.94 8.72 9.56 0 6.28-4.36 9.56-8.72 9.56-4.12 0-8.68-3.05-8.68-9.6 0-5.55 3.84-9.58 8.69-9.58zm0 18.05c4.85 0 5.91-4.65 5.91-8.36 0-4.78-1.55-8.63-5.91-8.63s-5.88 3.76-5.88 8.58c.01 3.53 1 8.35 5.89 8.35zm48.3-18.05c4.81 0 8.72 3.94 8.72 9.56 0 6.28-4.36 9.56-8.72 9.56-4.12 0-8.68-3.05-8.68-9.6.01-5.55 3.84-9.58 8.69-9.58zm0 18.05c4.85 0 5.91-4.65 5.91-8.36 0-4.78-1.55-8.63-5.91-8.63s-5.87 3.76-5.87 8.58c.01 3.53.99 8.35 5.88 8.35zm32.63-5.25c0 3.85-.31 5.09 2.43 5.09h.45v.51h-8.46v-.51h.54c2 0 2.61-.27 2.61-3.36V40.5c0-4.87 0-4.87-3.15-4.87v-.51a25.62 25.62 0 0 0 5.13-1.15h.44zm-1.56-21.78a1.89 1.89 0 0 1 0 3.77 1.78 1.78 0 0 1-1.77-1.88 1.76 1.76 0 0 1 1.78-1.95zm8.17 15.7c0 .62-.08 1.33-.08 2.08 0 2.57.67 9.16 6.07 9.16a5.5 5.5 0 0 0 5.32-3.54h1a6.89 6.89 0 0 1-6.83 4.69c-3.69 0-8.33-3-8.33-9.43 0-5.49 3.43-9.69 8.17-9.69a6.88 6.88 0 0 1 7 6.73zm9.37-.89a4.5 4.5 0 0 0 .09-.89 3.73 3.73 0 0 0-3.94-4c-4 0-5.26 3.72-5.44 4.87zm26.79-5.18v.51c1 0 2.49.23 2.49 1.15a6.33 6.33 0 0 1-.62 1.73l-4.57 11-5.09-10.82a11.1 11.1 0 0 1-.84-2.17c0-.75 1-.8 2.39-.88v-.52h-11.76v-5.53h-.49c-.66 4.16-2.55 5.75-4.51 5.75v.66h2.57v10.14c0 3.23.09 4.16.66 5.22a4 4 0 0 0 3.63 2.17 4.59 4.59 0 0 0 4.14-2.88l-.66-.4a3.34 3.34 0 0 1-2.7 1.77c-2.65 0-2.65-2.79-2.65-5.22v-10.8h4.24c2.08 0 2.43.75 3.45 2.92l6.33 13.52-2 5a3.93 3.93 0 0 1-2.61 2.66c-.8.35-2.26 1-2.26 2.29a1.28 1.28 0 0 0 1.37 1.28c1.73 0 2.79-1.95 3.94-4.69l8.06-19.48c1.11-2.66 1.56-3.72 3.66-3.89v-.49z"/>
</svg>